<?xml version="1.0" encoding="UTF-8"?>
<svg width="48px" height="18px" viewBox="0 0 48 18" version="1.1" xmlns="http://www.w3.org/2000/svg" xmlns:xlink="http://www.w3.org/1999/xlink">
    <!-- Generator: Sketch 54.1 (76490) - https://sketchapp.com -->
    <title>Untitled 8</title>
    <desc>Created with Sketch.</desc>
    <g id="Page-1" stroke="none" stroke-width="1" fill="none" fill-rule="evenodd">
        <g id="american-express-logo" fill="#FFFFFF" fill-rule="nonzero">
            <polygon id="Path" points="34.554 2.56 33.673 4.699 35.444 4.699"></polygon>
            <polygon id="Path" points="4.105 2.56 3.234 4.699 4.983 4.699"></polygon>
            <path d="M24.32,2.863 C24.168,2.777 23.934,2.766 23.712,2.766 L22.132,2.766 L22.132,3.957 L23.691,3.957 C23.938,3.957 24.146,3.953 24.325,3.847 C24.49,3.76 24.589,3.571 24.589,3.337 C24.589,3.107 24.486,2.941 24.32,2.863 Z" id="Path"></path>
            <path d="M29.816,12.093 C29.66,12 29.43,11.996 29.204,11.996 L27.624,11.996 L27.624,13.201 L29.183,13.201 C29.433,13.201 29.646,13.193 29.819,13.092 C29.985,12.99 30.084,12.807 30.084,12.576 C30.081,12.345 29.982,12.179 29.816,12.093 Z" id="Path"></path>
            <path d="M23.571,11.994 L21.899,11.994 L21.899,13.361 L23.555,13.361 C24.048,13.361 24.355,13.117 24.355,12.654 C24.354,12.182 24.035,11.994 23.571,11.994 Z" id="Path"></path>
            <path d="M47.262,12.8 C47.253,12.791 47.243,12.781 47.234,12.774 C47.477,12.616 47.639,12.342 47.639,12.03 L47.639,10.887 C47.639,10.396 47.242,10 46.752,10 L44.182,10 C43.381,10 42.777,10.236 42.337,10.592 C42.214,10.248 41.898,10 41.511,10 L38.941,10 C38.234,10 37.677,10.175 37.253,10.463 C37.099,10.188 36.822,10 36.49,10 L32.21,10 C31.865,10 31.574,10.201 31.427,10.488 C31.366,10.445 31.321,10.395 31.257,10.357 C30.636,10.025 29.976,10 29.296,10 L26.333,10 C25.988,10 25.696,10.203 25.55,10.492 C25.099,10.199 24.468,10 23.571,10 L19.473,10 C19.226,10 18.991,10.1 18.822,10.282 L17.851,11.329 L16.919,10.294 C16.752,10.103 16.513,9.999 16.26,9.999 L11.102,9.999 C10.612,9.999 10.216,10.396 10.216,10.886 L10.216,16.253 C10.216,16.744 10.613,17.14 11.102,17.14 L16.183,17.14 C16.43,17.14 16.665,17.037 16.833,16.855 L17.812,15.796 L18.741,16.841 C18.909,17.031 19.151,17.138 19.404,17.138 L21.897,17.138 C22.388,17.138 22.784,16.741 22.784,16.253 L22.784,15.337 L23.497,15.337 C24.364,15.337 24.991,15.159 25.447,14.888 L25.447,16.253 C25.447,16.742 25.844,17.138 26.334,17.138 L27.623,17.138 C28.114,17.138 28.51,16.741 28.51,16.253 L28.51,15.177 L28.993,15.177 C29.111,15.177 29.194,15.181 29.254,15.185 C29.258,15.281 29.258,15.396 29.256,15.472 L29.256,16.253 C29.256,16.742 29.655,17.138 30.143,17.138 L31.43,17.138 C31.574,17.138 31.704,17.099 31.822,17.038 C31.942,17.097 32.071,17.138 32.213,17.138 L36.494,17.138 C36.633,17.138 36.762,17.099 36.879,17.042 C36.996,17.099 37.122,17.138 37.264,17.138 L39.762,17.138 C40.557,17.138 41.205,16.943 41.69,16.599 C41.823,16.915 42.137,17.138 42.504,17.138 L45.002,17.138 C46.819,17.138 47.902,16.173 47.902,14.558 C47.902,13.81 47.7,13.253 47.262,12.8 Z M23.498,14.45 L21.898,14.45 L21.898,16.251 L19.405,16.251 L17.825,14.475 L16.183,16.251 L11.102,16.251 L11.102,10.883 L16.26,10.883 L17.84,12.643 L19.472,10.883 L23.57,10.883 C24.587,10.883 25.732,11.168 25.732,12.654 C25.732,14.143 24.62,14.453 23.498,14.45 Z M30.591,13.759 C30.875,13.863 31.108,14.052 31.216,14.21 C31.399,14.472 31.423,14.716 31.429,15.189 L31.429,16.253 L30.142,16.253 L30.142,15.581 C30.142,15.259 30.173,14.78 29.933,14.53 C29.749,14.339 29.464,14.294 28.994,14.294 L27.624,14.294 L27.624,16.253 L26.335,16.253 L26.335,10.886 L29.298,10.886 C29.946,10.886 30.418,10.913 30.841,11.138 C31.245,11.382 31.5,11.718 31.5,12.329 C31.5,13.187 30.927,13.624 30.591,13.759 Z M36.492,11.995 L33.488,11.995 L33.488,12.972 L36.418,12.972 L36.418,14.068 L33.488,14.068 L33.488,15.134 L36.492,15.14 L36.492,16.253 L32.212,16.253 L32.212,10.886 L36.492,10.886 L36.492,11.995 Z M39.763,16.247 L37.265,16.247 L37.265,15.094 L39.752,15.094 C39.994,15.094 40.167,15.064 40.275,14.961 C40.363,14.879 40.425,14.756 40.425,14.61 C40.425,14.454 40.359,14.331 40.269,14.256 C40.169,14.174 40.037,14.137 39.812,14.137 C38.614,14.098 37.111,14.174 37.111,12.477 C37.111,11.696 37.599,10.879 38.945,10.879 L41.515,10.879 L41.515,12.021 L39.162,12.021 C38.927,12.021 38.776,12.031 38.648,12.119 C38.507,12.207 38.454,12.336 38.454,12.506 C38.454,12.709 38.573,12.844 38.734,12.906 C38.871,12.953 39.015,12.967 39.234,12.967 L39.923,12.987 C40.618,13.006 41.097,13.126 41.386,13.419 C41.638,13.678 41.771,14.006 41.771,14.557 C41.771,15.714 41.052,16.253 39.763,16.247 Z M45.004,16.247 L42.506,16.247 L42.506,15.094 L44.994,15.094 C45.236,15.094 45.409,15.064 45.516,14.961 C45.604,14.879 45.666,14.756 45.666,14.61 C45.666,14.454 45.6,14.331 45.51,14.256 C45.411,14.174 45.279,14.137 45.053,14.137 C43.854,14.098 42.352,14.174 42.352,12.477 C42.352,11.696 42.84,10.879 44.186,10.879 L46.756,10.879 L46.756,12.021 L44.404,12.021 C44.168,12.021 44.016,12.031 43.889,12.119 C43.748,12.207 43.696,12.336 43.696,12.506 C43.696,12.709 43.816,12.844 43.975,12.906 C44.113,12.953 44.256,12.967 44.475,12.967 L45.164,12.987 C45.86,13.006 46.34,13.126 46.629,13.419 C46.879,13.678 47.014,14.006 47.014,14.557 C47.014,15.714 46.293,16.253 45.004,16.247 Z" id="Shape"></path>
            <path d="M43.236,0.762 L41.923,0.762 C41.432,0.762 41.036,1.159 41.036,1.648 L41.036,2.202 L40.427,1.191 C40.265,0.926 39.978,0.763 39.669,0.763 L37.714,0.763 C37.224,0.763 36.828,1.16 36.828,1.649 L36.828,2.402 L36.357,1.3 C36.218,0.975 35.898,0.763 35.544,0.763 L33.622,0.763 C33.427,0.763 33.241,0.827 33.093,0.939 C32.946,0.828 32.761,0.763 32.562,0.763 L31.323,0.763 C30.269,0.763 29.489,1.018 28.915,1.516 C28.849,1.093 28.498,0.763 28.056,0.763 L26.746,0.763 C26.396,0.763 26.103,0.97 25.957,1.262 C25.902,1.222 25.86,1.174 25.798,1.138 C25.196,0.79 24.563,0.763 23.8,0.763 L20.85,0.763 C20.684,0.763 20.539,0.821 20.405,0.9 C20.274,0.821 20.127,0.763 19.961,0.763 L15.677,0.763 C15.496,0.763 15.339,0.83 15.199,0.922 C15.058,0.83 14.901,0.763 14.721,0.763 L12.583,0.763 C12.229,0.763 11.908,0.976 11.769,1.304 L11.007,3.1 L10.168,1.278 C10.022,0.964 9.707,0.763 9.363,0.763 L7.269,0.763 C6.779,0.763 6.383,1.16 6.383,1.649 L6.383,2.42 L5.902,1.298 C5.762,0.973 5.442,0.762 5.087,0.762 L3.183,0.762 C2.828,0.762 2.508,0.974 2.368,1.299 L0.072,6.666 C-0.046,6.941 -0.017,7.253 0.146,7.503 C0.31,7.751 0.588,7.901 0.886,7.901 L2.28,7.901 C2.636,7.901 2.959,7.685 3.096,7.355 L3.367,6.703 L4.853,6.703 L5.12,7.351 C5.256,7.683 5.58,7.9 5.94,7.9 L8.549,7.9 C9.039,7.9 9.435,7.503 9.435,7.014 L9.435,6.993 L9.603,7.374 C9.745,7.694 10.063,7.901 10.413,7.901 L11.54,7.903 C11.892,7.903 12.208,7.696 12.35,7.375 L12.52,6.995 L12.52,7.017 C12.52,7.506 12.916,7.902 13.406,7.902 L14.721,7.902 C14.901,7.902 15.058,7.834 15.199,7.743 C15.339,7.834 15.496,7.902 15.677,7.902 L19.961,7.902 C20.127,7.902 20.274,7.844 20.405,7.765 C20.538,7.844 20.684,7.902 20.85,7.902 L22.134,7.902 C22.624,7.902 23.02,7.505 23.02,7.016 L23.02,5.95 L23.51,5.95 C23.621,5.95 23.7,5.953 23.759,5.957 C23.765,6.048 23.763,6.156 23.763,6.228 L23.761,6.346 L23.766,7.023 C23.77,7.509 24.167,7.902 24.653,7.902 L25.947,7.902 C26.092,7.902 26.223,7.857 26.344,7.795 C26.467,7.858 26.599,7.902 26.745,7.902 L28.055,7.902 C28.485,7.902 28.825,7.592 28.908,7.188 C29.635,7.799 30.659,7.902 31.229,7.902 L32.732,7.902 C33.09,7.902 33.414,7.682 33.549,7.347 L33.81,6.704 L35.288,6.704 L35.559,7.356 C35.696,7.685 36.018,7.901 36.377,7.901 L38.987,7.901 C39.477,7.901 39.873,7.504 39.873,7.015 L39.873,6.168 L40.66,7.473 C40.821,7.738 41.108,7.901 41.42,7.901 L43.236,7.901 C43.726,7.901 44.122,7.504 44.122,7.015 L44.122,1.648 C44.122,1.159 43.724,0.762 43.236,0.762 Z M14.72,7.014 L13.405,7.014 L13.4,2.811 L11.54,7.014 L10.413,7.014 L8.55,2.807 L8.55,7.014 L5.939,7.014 L5.446,5.817 L2.776,5.817 L2.278,7.014 L0.884,7.014 L3.181,1.647 L5.085,1.647 L7.268,6.729 L7.268,1.647 L9.362,1.647 L11.041,5.288 L12.582,1.647 L14.72,1.647 C14.72,1.647 14.72,7.014 14.72,7.014 Z M19.96,2.765 L16.958,2.765 L16.958,3.732 L19.889,3.732 L19.889,4.832 L16.958,4.832 L16.958,5.904 L19.96,5.904 L19.96,7.014 L15.676,7.014 L15.676,1.647 L19.96,1.647 L19.96,2.765 Z M25.097,4.524 C25.378,4.632 25.618,4.82 25.732,4.976 C25.914,5.243 25.945,5.481 25.945,5.96 L25.945,7.013 L24.651,7.013 L24.645,6.336 C24.645,6.014 24.676,5.55 24.443,5.291 C24.256,5.103 23.97,5.062 23.508,5.062 L22.133,5.062 L22.133,7.014 L20.849,7.014 L20.848,7.014 L20.848,1.648 L23.798,1.648 C24.454,1.648 24.937,1.665 25.351,1.905 C25.757,2.145 26,2.495 26,3.094 C26,3.949 25.429,4.392 25.097,4.524 Z M28.056,7.014 L26.746,7.014 L26.746,1.647 L28.056,1.647 L28.056,7.014 Z M43.236,7.014 L41.419,7.014 L38.986,2.986 L38.986,7.014 L36.376,7.014 L35.876,5.817 L33.21,5.817 L32.728,7.014 L31.226,7.014 C30.603,7.014 29.816,6.876 29.37,6.421 C28.916,5.965 28.682,5.347 28.682,4.372 C28.682,3.576 28.823,2.848 29.369,2.272 C29.782,1.844 30.431,1.647 31.317,1.647 L32.556,1.647 L32.556,2.797 L31.341,2.797 C30.874,2.797 30.609,2.866 30.355,3.115 C30.136,3.341 29.987,3.768 29.987,4.331 C29.987,4.905 30.101,5.319 30.341,5.59 C30.54,5.803 30.9,5.867 31.235,5.867 L31.81,5.867 L33.622,1.647 L35.544,1.647 L37.714,6.723 L37.714,1.647 L39.669,1.647 L41.923,5.385 L41.923,1.647 L43.236,1.647 L43.236,7.014 Z M31.788,3.684 L31.231,4.983 C31.108,4.983 31.025,4.969 30.979,4.957 C30.936,4.877 30.877,4.7 30.877,4.332 C30.877,3.96 30.967,3.767 30.979,3.75 C31.016,3.714 31.047,3.683 31.348,3.683 L31.788,3.684 Z" id="Shape"></path>
            <polygon id="Path" points="18.651 13.578 20.621 15.766 20.621 11.463"></polygon>
            <polygon id="Path" points="15.597 11.996 12.383 11.996 12.383 12.971 15.198 12.971 15.198 14.067 12.383 14.067 12.383 15.135 15.535 15.135 17 13.558"></polygon>
        </g>
    </g>
</svg>