<?xml version="1.0" encoding="UTF-8"?>
<svg width="60px" height="28px" viewBox="0 0 60 28" version="1.1" xmlns="http://www.w3.org/2000/svg" xmlns:xlink="http://www.w3.org/1999/xlink">
    <!-- Generator: Sketch 54.1 (76490) - https://sketchapp.com -->
    <title>Untitled 11</title>
    <desc>Created with Sketch.</desc>
    <g id="Page-1" stroke="none" stroke-width="1" fill="none" fill-rule="evenodd">
        <g id="applepay" fill="#FFFFFF">
            <path d="M32.6378887,8.088236 C35.5875303,8.088236 37.6738613,10.1266037 37.6738613,13.100227 C37.6738613,16.073847 35.5635487,18.1361963 32.5659467,18.1361963 L29.040769,18.1361963 L29.040769,23.3400347 L26.6666667,23.3400347 L26.6666667,8.088236 L32.6378887,8.088236 Z M29.040769,16.1457887 L32.014389,16.1457887 C34.0527567,16.1457887 35.2517987,15.0426703 35.2517987,13.124205 C35.2517987,11.2057397 34.0767383,10.078643 32.014389,10.078643 L29.040769,10.078643 L29.040769,16.1457887 Z" id="Shape"></path>
            <path d="M38.129495,20.0546613 C38.129495,18.0402723 39.688247,16.8891937 42.517983,16.6973463 L45.6115087,16.5294807 L45.6115087,15.6421917 C45.6115087,14.3232473 44.7242163,13.603821 43.213428,13.603821 C41.9664257,13.603821 41.055155,14.2513053 40.8633073,15.2345183 L38.7290127,15.2345183 C38.8009547,13.1961477 40.71942,11.7093377 43.2853697,11.7093377 C46.091124,11.7093377 47.889684,13.1961477 47.889684,15.4503447 L47.889684,23.3160533 L45.7074293,23.3160533 L45.7074293,21.397588 L45.659466,21.397588 C45.0359663,22.6445903 43.59712,23.4359587 42.0383647,23.4359587 C39.7122287,23.4599367 38.129495,22.0930323 38.129495,20.0546613 Z M45.6115087,19.0234883 L45.6115087,18.136196 L42.829736,18.3280433 C41.270984,18.423967 40.455637,18.9995063 40.455637,20.0306793 C40.455637,21.013892 41.3189473,21.637395 42.6378917,21.637395 C44.316546,21.6134133 45.6115087,20.534277 45.6115087,19.0234883 Z" id="Shape"></path>
            <path d="M50.383695,27.4407513 L50.383695,25.5702463 C50.5515543,25.6182097 50.9112677,25.6182097 51.103115,25.6182097 C52.1822547,25.6182097 52.8057543,25.1625727 53.1894493,23.939552 L53.3573087,23.340031 L49.184653,11.8292393 L51.654676,11.8292393 L54.6043143,21.2057397 L54.6522777,21.2057397 L57.601916,11.8292393 L60,11.8292393 L55.7074357,23.8436283 C54.724223,26.6014223 53.6450833,27.4887083 51.294969,27.4887083 C51.1270967,27.5126967 50.5755423,27.464733 50.383695,27.4407513 Z" id="Path"></path>
            <path d="M18.1348387,14.167347 C18.1026267,10.7951483 20.8901277,9.169922 21.0159237,9.09289367 C19.4506453,6.79816267 17.0085557,6.48403167 16.1388587,6.44730567 C14.062789,6.23884533 12.087186,7.671226 11.0331583,7.671226 C9.98198833,7.671226 8.35438733,6.47906 6.63394467,6.51295667 C4.36859633,6.54445667 2.28186533,7.828061 1.115536,9.85434233 C-1.23487367,13.935423 0.514734667,19.979531 2.80685133,23.2903387 C3.92556067,24.9070487 5.26270267,26.7308173 7.01607267,26.6649343 C8.70740133,26.598619 9.34421733,25.574179 11.3840423,25.574179 C13.4255013,25.574179 13.9988457,26.6649343 15.7877717,26.631292 C17.6027393,26.598619 18.756749,24.9800207 19.868571,23.356705 C21.1538347,21.476339 21.6830793,19.656118 21.7138893,19.561593 C21.6747887,19.5473863 18.171568,18.2024417 18.1348387,14.167347 Z" id="Path"></path>
            <path d="M14.7796933,4.25921433 C15.7114697,3.12984133 16.336681,1.562662 16.1653837,8.8817842e-16 C14.824225,0.0532816667 13.1980657,0.895252333 12.23739,2.021106 C11.3738393,3.02016567 10.6180907,4.61552933 10.8230163,6.14546767 C12.3191357,6.2618 13.8474433,5.386416 14.7796933,4.25921433 Z" id="Path"></path>
        </g>
    </g>
</svg>