<?xml version="1.0" encoding="UTF-8"?>
<svg width="44px" height="18px" viewBox="0 0 44 18" version="1.1" xmlns="http://www.w3.org/2000/svg" xmlns:xlink="http://www.w3.org/1999/xlink">
    <!-- Generator: Sketch 54.1 (76490) - https://sketchapp.com -->
    <title>Untitled 6</title>
    <desc>Created with Sketch.</desc>
    <g id="Page-1" stroke="none" stroke-width="1" fill="none" fill-rule="evenodd">
        <g id="gpay-logo" fill="#FFFFFF" fill-rule="nonzero">
            <path d="M13.479,11.579 C12.197,13.469 10.033,14.711 7.578,14.711 C3.643,14.711 0.453,11.522 0.453,7.586 C0.453,3.651 3.643,0.461 7.578,0.461 C9.45,0.461 11.148,1.189 12.42,2.369 L10.428,4.285 L10.431,4.312 C9.689,3.693 8.745,3.305 7.703,3.305 C5.339,3.305 3.422,5.222 3.422,7.586 C3.422,9.95 5.339,11.867 7.703,11.867 C8.869,11.867 9.924,11.398 10.695,10.641 C10.903,10.412 11.247,9.906 11.488,8.992 L7.641,8.992 L7.641,6.273 L11.755,6.273 L13.703,6.273 L14.344,6.273 C14.793,9.498 13.499,11.547 13.479,11.579 Z M23.816,8.761 L23.816,8.774 L20.88,8.774 L20.88,13.795 L19.318,13.795 L19.318,1.481 L20.568,1.481 L20.88,1.481 L23.692,1.481 C25.706,1.481 27.338,3.113 27.338,5.127 C27.339,7.099 25.771,8.694 23.816,8.761 Z M23.692,2.948 L20.88,2.948 L20.88,7.297 L23.763,7.297 C24.898,7.216 25.796,6.282 25.796,5.128 C25.797,3.948 24.861,2.993 23.692,2.948 Z M34.819,12.401 L34.819,13.795 L34.11,13.795 L33.343,13.795 L33.343,12.57 L33.071,12.861 L33.062,12.853 C32.108,14.028 30.906,14.157 30.031,14.054 C27.912,13.804 27.444,12.089 27.396,11.887 C27.371,11.79 27.351,11.679 27.338,11.544 C27.213,10.169 27.942,8.898 29.692,8.439 C31.442,7.98 33.317,8.793 33.317,8.793 C33.317,8.793 33.505,7.585 32.359,6.835 C31.213,6.085 29.942,6.731 29.942,6.731 C29.942,6.731 29.234,7.127 29.004,7.585 C27.608,6.71 27.608,6.71 27.608,6.71 C27.608,6.71 28.545,5.377 30.274,5.085 C32.003,4.793 34.274,5.585 34.712,7.585 C34.837,8.147 34.816,8.523 34.816,8.523 L34.819,12.401 Z M30.776,9.607 C28.911,9.772 28.799,11.337 29.188,11.908 C29.328,12.123 29.974,12.953 31.5,12.57 C32.375,12.336 33.283,11.351 33.36,10.211 C33.36,10.211 32.651,9.44 30.776,9.607 Z M40.586,12.172 L38.266,17.539 L36.578,17.539 L38.582,13.289 L38.224,12.503 L38.214,12.503 L35.11,5.315 L36.86,5.315 L39.381,11.398 L41.84,5.315 L43.548,5.315 L40.586,12.172 Z" id="gpay"></path>
        </g>
    </g>
</svg>