<svg xmlns="http://www.w3.org/2000/svg" viewBox="0 0 512 512"><symbol id="rey-icon-search" xmlns="http://www.w3.org/2000/svg" viewBox="0 0 30 30"><path d="M29.784 26.394l-4.681-4.563c-.047-.046-.108-.067-.16-.104 4.558-5.31 3.849-12.771-1.267-17.758C21.055 1.414 17.571.006 13.865.006c-3.707 0-7.192 1.408-9.812 3.963a13.303 13.303 0 000 19.132c2.62 2.556 6.105 3.964 9.812 3.964 3.29 0 5.966-.742 8.457-2.78.039.051.059.109.106.156l4.298 4.189c.249.243.575.365.901.365.326 0 1.472-.122 1.72-.365.498-.485.935-1.751.437-2.236zm-15.919-2.56c-6.327 0-10.277-4.238-10.339-10.185C3.46 7.397 7.666 3.397 13.865 3.397c6.222 0 10.654 4.013 10.612 10.212-.041 6-4.308 10.225-10.612 10.225z"/></symbol><symbol id="rey-icon-spinner" viewBox="0 0 66 66" xmlns="http://www.w3.org/2000/svg"><g><animateTransform attributeName="transform" type="rotate" values="0 33 33;270 33 33" begin="0s" dur="1.4s" fill="freeze" repeatCount="indefinite"/><circle fill="none" stroke-width="6" stroke-linecap="round" cx="33" cy="33" r="30" stroke-dasharray="187" stroke-dashoffset="610" stroke="currentColor"><animateTransform attributeName="transform" type="rotate" values="0 33 33;135 33 33;450 33 33" begin="0s" dur="1.4s" fill="freeze" repeatCount="indefinite"/><animate attributeName="stroke-dashoffset" values="187;46.75;187" begin="0s" dur="1.4s" fill="freeze" repeatCount="indefinite"/></circle></g></symbol><symbol id="rey-icon-help" viewBox="0 0 24 24" xmlns="http://www.w3.org/2000/svg" xmlns:xlink="http://www.w3.org/1999/xlink"><path d="M12 22a10 10 0 110-20 10 10 0 010 20zm0-2a8 8 0 100-16 8 8 0 000 16zM10.59 8.59a1 1 0 11-1.42-1.42 4 4 0 115.66 5.66l-2.12 2.12a1 1 0 11-1.42-1.42l2.12-2.12A2 2 0 0010.6 8.6zM12 18a1 1 0 110-2 1 1 0 010 2z"/></symbol><symbol id="rey-icon-cart" viewBox="0 0 24 24" xmlns="http://www.w3.org/2000/svg" xmlns:xlink="http://www.w3.org/1999/xlink"><path d="M21 3h-4.4C15.8 1.2 14 0 12 0S8.2 1.2 7.4 3H3c-.6 0-1 .4-1 1v19c0 .6.4 1 1 1h18c.6 0 1-.4 1-1V4c0-.6-.4-1-1-1zm-9-2c1.5 0 2.8.8 3.4 2H8.6c.6-1.2 1.9-2 3.4-2zm8 21H4v-4h16v4zm0-5H4V5h3v4h1V5h8v4h1V5h3v12z"/></symbol><symbol id="rey-icon-comments" viewBox="0 0 24 23" xmlns="http://www.w3.org/2000/svg" xmlns:xlink="http://www.w3.org/1999/xlink"><path d="M8.07 22.99a.922.922 0 01-.36-.07.986.986 0 01-.63-.92v-4.12A8.735 8.735 0 01.01 8.99C.01 4.04 3.73.01 8.31.01h7.4c4.58 0 8.3 4.03 8.3 8.98s-3.72 8.99-8.3 8.99H13.3l-4.51 4.71a.982.982 0 01-.72.3zm.24-21c-3.49 0-6.32 3.14-6.32 7 0 3.81 2.69 6.88 6.12 7a1 1 0 01.96.99v2.55l3.09-3.23a1 1 0 01.71-.3h2.84c3.48 0 6.32-3.15 6.32-7.01s-2.84-7-6.32-7h-7.4z"/></symbol><symbol id="rey-icon-mail" xmlns="http://www.w3.org/2000/svg" xmlns:xlink="http://www.w3.org/1999/xlink" viewBox="0 0 32 32"><path d="M28 5H4a4 4 0 00-4 4v13a4 4 0 004 4h24a4 4 0 004-4V9a4 4 0 00-4-4zM2 10.25l6.999 5.25L2 20.75v-10.5zM30 22c0 1.104-.898 2-2 2H4c-1.103 0-2-.896-2-2l7.832-5.875 4.368 3.277a3 3 0 003.599 0l4.369-3.277L30 22zm0-1.25l-7-5.25 7-5.25v10.5zm-12.801-2.148a1.98 1.98 0 01-1.199.4 1.99 1.99 0 01-1.2-.4L10.665 15.5l-.833-.625L2 9.001V9c0-1.103.897-2 2-2h24c1.102 0 2 .897 2 2l-12.801 9.602z"/></symbol><symbol id="rey-icon-link" xmlns="http://www.w3.org/2000/svg" xmlns:xlink="http://www.w3.org/1999/xlink" viewBox="0 0 48 48"><path d="M7.8 24c0-3.42 2.78-6.2 6.2-6.2h8V14h-8C8.48 14 4 18.48 4 24s4.48 10 10 10h8v-3.8h-8c-3.42 0-6.2-2.78-6.2-6.2zm8.2 2h16v-4H16v4zm18-12h-8v3.8h8c3.42 0 6.2 2.78 6.2 6.2s-2.78 6.2-6.2 6.2h-8V34h8c5.52 0 10-4.48 10-10s-4.48-10-10-10z"/></symbol><symbol id="rey-icon-quote" xmlns="http://www.w3.org/2000/svg" xmlns:xlink="http://www.w3.org/1999/xlink" viewBox="0 0 512 512"><path d="M0 432V304C0 166.982 63.772 67.676 193.827 32.828 209.052 28.748 224 40.265 224 56.027v33.895c0 10.057-6.228 19.133-15.687 22.55C142.316 136.312 104 181.946 104 256h72c26.51 0 48 21.49 48 48v128c0 26.51-21.49 48-48 48H48c-26.51 0-48-21.49-48-48zm336 48h128c26.51 0 48-21.49 48-48V304c0-26.51-21.49-48-48-48h-72c0-74.054 38.316-119.688 104.313-143.528C505.772 109.055 512 99.979 512 89.922V56.027c0-15.762-14.948-27.279-30.173-23.199C351.772 67.676 288 166.982 288 304v128c0 26.51 21.49 48 48 48z"/></symbol><symbol id="rey-icon-close" xmlns="http://www.w3.org/2000/svg" viewBox="0 0 110 109"><path d="M4.795 4.295l100.15 100.15L4.795 4.295zm0 100.41l100.15-100.15-100.15 100.15z" fill="none" fill-rule="evenodd" stroke-linecap="square" stroke="currentColor" stroke-width="var(--stroke-width, 12px)"/></symbol><symbol id="rey-icon-user" viewBox="0 0 24 24" xmlns="http://www.w3.org/2000/svg" xmlns:xlink="http://www.w3.org/1999/xlink"><path d="M8.682 13H5.8C4.7 11.6 4 9.9 4 8c0-4.4 3.6-8 8-8s8 3.6 8 8c0 1.9-.7 3.6-1.8 5h-2.882a6 6 0 10-6.636 0zM18 14H6c-3.3 0-6 2.7-6 6v3c0 .6.4 1 1 1h22c.6 0 1-.4 1-1v-3c0-3.3-2.7-6-6-6zm4 8H2v-2c0-2.2 1.8-4 4-4h12c2.2 0 4 1.8 4 4v2z"/></symbol><symbol id="rey-icon-check" viewBox="0 0 46 46" xmlns="http://www.w3.org/2000/svg" xmlns:xlink="http://www.w3.org/1999/xlink"><path d="M23 0C10.317 0 0 10.317 0 23s10.317 23 23 23 23-10.317 23-23c0-4.56-1.34-8.81-3.637-12.389l-1.369 1.618A20.846 20.846 0 0144 23c0 11.579-9.421 21-21 21S2 34.579 2 23 11.421 2 23 2c5.443 0 10.394 2.1 14.129 5.51l1.309-1.545A22.912 22.912 0 0023 0zm18.236 5.754l-19.322 22.8-8.133-7.585-1.363 1.463 9.666 9.015 20.68-24.4-1.528-1.293z"/></symbol><symbol id="rey-icon-sliders" viewBox="0 0 32 32" xmlns="http://www.w3.org/2000/svg" xmlns:xlink="http://www.w3.org/1999/xlink"><path d="M24.477 14.776V9.881h7.343V4.986h-7.343V.09H19.58v4.896H0V9.88h19.581v4.895h4.896zM12.24 31.91v-4.895h19.58v-4.896H12.24v-4.895H7.344v4.895H0v4.896h7.343v4.895h4.898z" id="Shape" fill-rule="nonzero"/></symbol><symbol id="rey-icon-telephone" viewBox="0 0 35 35" xmlns="http://www.w3.org/2000/svg" xmlns:xlink="http://www.w3.org/1999/xlink"><path d="M33.353 30.348a4.571 4.571 0 01-5.01 4.569A31.665 31.665 0 0114.54 30.01a31.222 31.222 0 01-9.605-9.6A31.702 31.702 0 01.02 6.507a4.571 4.571 0 014.55-4.983h4.556a4.575 4.575 0 014.573 3.945c.178 1.35.508 2.674.983 3.945a4.574 4.574 0 01-1.035 4.83l-1.093 1.092a22.857 22.857 0 006.988 6.988l1.099-1.099a4.57 4.57 0 014.82-1.03c1.274.476 2.599.806 3.961.986a4.571 4.571 0 013.932 4.619v4.548zm-3.047-4.565v-.038A1.52 1.52 0 0029.01 24.2a21.097 21.097 0 01-4.618-1.15 1.52 1.52 0 00-1.602.336l-1.935 1.935a1.524 1.524 0 01-1.831.248 25.905 25.905 0 01-9.714-9.715 1.524 1.524 0 01.247-1.83l1.93-1.93c.417-.423.551-1.05.34-1.61a21.055 21.055 0 01-1.147-4.602 1.528 1.528 0 00-1.539-1.31H4.57a1.524 1.524 0 00-1.519 1.637 28.647 28.647 0 004.45 12.555 28.207 28.207 0 008.685 8.681 28.607 28.607 0 0012.459 4.44 1.524 1.524 0 001.66-1.53v-4.572zM20.947 9.115a6.095 6.095 0 014.815 4.815 1.524 1.524 0 102.992-.584 9.143 9.143 0 00-7.223-7.222 1.524 1.524 0 10-.584 2.99z"/><path d="M21.07 3.038a12.19 12.19 0 0110.77 10.755 1.524 1.524 0 003.028-.34A15.238 15.238 0 0021.408.009a1.524 1.524 0 00-.337 3.03z"/></symbol><symbol id="rey-icon-active" viewBox="0 0 28 28" xmlns="http://www.w3.org/2000/svg" xmlns:xlink="http://www.w3.org/1999/xlink"><path d="M3 0h22a3 3 0 013 3v22a3 3 0 01-3 3H3a3 3 0 01-3-3V3a3 3 0 013-3zm0 1a2 2 0 00-2 2v22a2 2 0 002 2h22a2 2 0 002-2V3a2 2 0 00-2-2H3z"/><path d="M12.385 20L7 14.5l2.154-2.2 3.23 3.3L18.847 9 21 11.2z"/></symbol><symbol id="rey-icon-inactive" viewBox="0 0 28 28" xmlns="http://www.w3.org/2000/svg" xmlns:xlink="http://www.w3.org/1999/xlink"><path d="M3 0h22a3 3 0 013 3v22a3 3 0 01-3 3H3a3 3 0 01-3-3V3a3 3 0 013-3zm0 1a2 2 0 00-2 2v22a2 2 0 002 2h22a2 2 0 002-2V3a2 2 0 00-2-2H3z"/><path d="M16 14l3 3-2 2-3-3-3 3-2-2 3-3-3-3 2-2 3 3 3-3 2 2z"/></symbol><symbol id="rey-icon-logo" viewBox="0 0 78 40" xmlns="http://www.w3.org/2000/svg" xmlns:xlink="http://www.w3.org/1999/xlink"><path d="M78 .858h-9.326L63.587 15.12 58.5.858h-9.326L59.4 24.987 52.709 40h9.314L78 .858zM8.478 5.63V.858H0v25.737h8.478v-9.49c0-4.183 2.226-6.971 4.663-7.668 1.537-.429 3.074-.483 4.663 0V0c-4.769.322-7.577 1.93-9.326 5.63zm27.237 14.316c-1.007 0-2.014-.16-2.65-.536l15.05-9.115C46.153 1.769 39.688 0 36.032 0c-8.85 0-14.201 6.113-14.201 13.727 0 7.613 5.351 13.726 14.2 13.726 4.08 0 7.578-1.501 10.386-4.236l-4.345-5.737c-1.536 1.448-3.815 2.466-6.358 2.466zm.318-12.44c1.377 0 2.331.698 2.755 1.395l-8.796 5.308c-.53-4.021 2.437-6.702 6.04-6.702z" fill="currentColor"/></symbol><symbol id="rey-icon-notice" xmlns="http://www.w3.org/2000/svg" viewBox="0 0 1024 1024"><path fill="currentColor" d="M800 1024H224C100.288 1024 0 923.712 0 800V224C0 100.288 100.288 0 224 0h320v64H224c-88.366 0-160 71.634-160 160v576c0 88.366 71.634 160 160 160h576c88.366 0 160-71.634 160-160V480h64v320c0 123.712-100.288 224-224 224z"/><path fill="currentColor" d="M800 448c-123.712 0-224-100.288-224-224S676.288 0 800 0s224 100.288 224 224-100.288 224-224 224zm0-384c-88.366 0-160 71.634-160 160s71.634 160 160 160 160-71.634 160-160S888.366 64 800 64z"/></symbol></svg>