<?xml version="1.0" encoding="UTF-8"?>
<svg width="107px" height="44px" viewBox="0 0 107 44" version="1.1" xmlns="http://www.w3.org/2000/svg" xmlns:xlink="http://www.w3.org/1999/xlink">
    <g id="Page-1" stroke="none" stroke-width="1" fill="none" fill-rule="evenodd">
        <g id="logo" fill="#ffffff" fill-rule="nonzero">
            <path d="M94.788,17.72 L88.452,17.72 L84.996,27.296 L81.54,17.72 L75.204,17.72 L82.152,33.92 L77.6054266,44 L2,44 C0.8954305,44 -2.96984659e-15,43.1045695 -0,42 L-0,2 C-2.96984659e-15,0.8954305 0.8954305,2.02906125e-16 2,0 L105,0 C106.104569,-2.02906125e-16 107,0.8954305 107,2 L107,42 C107,43.1045695 106.104569,44 105,44 L83.9332174,44 L94.788,17.72 Z M47.556,20.924 L47.556,17.72 L41.796,17.72 L41.796,35 L47.556,35 L47.556,28.628 C47.556,25.82 49.068,23.948 50.724,23.48 C51.768,23.192 52.812,23.156 53.892,23.48 L53.892,17.144 C50.652,17.36 48.744,18.44 47.556,20.924 Z M66.06,30.536 C65.376,30.536 64.692,30.428 64.26,30.176 L74.484,24.056 C73.152,18.332 68.76,17.144 66.276,17.144 C60.264,17.144 56.628,21.248 56.628,26.36 C56.628,31.472 60.264,35.576 66.276,35.576 C69.048,35.576 71.424,34.568 73.332,32.732 L70.38,28.88 C69.336,29.852 67.788,30.536 66.06,30.536 Z M66.276,22.184 C67.212,22.184 67.86,22.652 68.148,23.12 L62.172,26.684 C61.812,23.984 63.828,22.184 66.276,22.184 Z" id="Rey-Logo"></path>
        </g>
    </g>
</svg>
