<?xml version="1.0" encoding="UTF-8"?>
<svg width="49px" height="30px" viewBox="0 0 49 30" version="1.1" xmlns="http://www.w3.org/2000/svg" xmlns:xlink="http://www.w3.org/1999/xlink">
    <!-- Generator: Sketch 54.1 (76490) - https://sketchapp.com -->
    <title>Untitled 6</title>
    <desc>Created with Sketch.</desc>
    <g id="Page-1" stroke="none" stroke-width="1" fill="none" fill-rule="evenodd">
        <g id="master-card-logo" fill="#FFFFFF" fill-rule="nonzero">
            <path d="M33.933,0.716 C30.192,0.717 26.782,2.135 24.212,4.464 C21.64,2.138 18.232,0.719 14.495,0.719 C14.464,0.719 14.432,0.719 14.402,0.719 C6.444,0.771 0,7.245 0,15.214 C0,23.215 6.494,29.708 14.494,29.708 C18.231,29.708 21.639,28.291 24.21,25.963 C23.673,25.478 23.187,24.941 22.728,24.379 L25.721,24.379 C25.27,24.932 24.778,25.45 24.249,25.932 L24.247,25.932 C24.235,25.945 24.222,25.953 24.21,25.964 C26.783,28.294 30.195,29.714 33.938,29.713 C41.943,29.71 48.43,23.218 48.428,15.214 C48.428,15.211 48.428,15.209 48.428,15.207 C48.429,7.203 41.938,0.714 33.933,0.716 Z M22.894,5.961 L25.649,5.961 C26.055,6.453 26.432,6.971 26.774,7.513 L21.859,7.513 C22.176,6.995 22.524,6.462 22.894,5.961 Z M21.003,9.035 L27.61,9.035 C27.845,9.537 28.053,10.056 28.235,10.588 L20.22,10.588 C20.3,10.438 20.58,9.834 21.003,9.035 Z M5.917,18.906 L6.796,13.364 L4.813,18.906 L3.75,18.906 L3.612,13.364 L2.673,18.906 L1.184,18.906 L2.418,11.556 L4.67,11.556 L4.749,16.066 L6.27,11.556 L8.713,11.556 L7.496,18.906 L5.917,18.906 Z M11.182,18.894 L11.233,18.307 C11.209,18.31 10.739,19.016 9.65,19.016 C9.08,19.016 8.16,18.705 8.16,17.353 C8.16,15.634 9.562,15.064 10.897,15.064 C11.107,15.064 11.56,15.102 11.56,15.102 C11.56,15.102 11.611,14.997 11.611,14.713 C11.611,14.246 11.191,14.182 10.616,14.182 C9.603,14.182 8.934,14.453 8.934,14.453 L9.158,13.123 C9.158,13.123 9.97,12.783 11.027,12.783 C11.574,12.783 13.147,12.841 13.147,14.644 L12.541,18.894 L11.182,18.894 Z M16.925,17.022 C16.925,19.073 14.938,18.985 14.591,18.985 C13.296,18.985 12.896,18.806 12.859,18.796 L13.065,17.446 C13.067,17.434 13.715,17.681 14.436,17.681 C14.852,17.681 15.392,17.64 15.392,17.143 C15.392,16.399 13.46,16.577 13.46,14.81 C13.46,13.251 14.618,12.795 15.76,12.795 C16.642,12.795 17.184,12.916 17.184,12.916 L16.989,14.278 C16.989,14.278 16.152,14.209 15.935,14.209 C15.386,14.209 15.087,14.329 15.087,14.713 C15.086,15.485 16.925,15.107 16.925,17.022 Z M19.311,17.56 C19.448,17.56 19.603,17.513 19.709,17.513 L19.516,18.824 C19.361,18.867 18.922,19.023 18.359,19.027 C17.64,19.033 17.129,18.631 17.129,17.719 C17.129,17.107 18.006,12.064 18.04,12.031 L19.583,12.031 L19.426,12.933 L20.196,12.933 L19.999,14.386 L19.182,14.386 L18.748,17.063 C18.715,17.276 18.774,17.56 19.311,17.56 Z M22.705,12.763 C24.399,12.763 24.906,14.003 24.906,15.02 C24.906,15.427 24.702,16.427 24.702,16.427 L21.566,16.427 C21.566,16.427 21.276,17.662 22.933,17.662 C23.71,17.662 24.572,17.282 24.572,17.282 L24.3,18.769 C24.3,18.769 23.802,19.023 22.67,19.023 C21.443,19.023 20.004,18.504 20.004,16.324 C20.005,14.435 21.153,12.763 22.705,12.763 Z M26.792,22.886 L21.65,22.886 C21.337,22.386 21.045,21.873 20.794,21.334 L27.637,21.334 C27.385,21.87 27.103,22.388 26.792,22.886 Z M26.447,18.917 L24.863,18.917 L25.826,12.935 L27.263,12.935 L27.125,13.802 C27.125,13.802 27.637,12.859 28.328,12.859 C28.529,12.859 28.626,12.879 28.626,12.879 C28.421,13.297 28.24,13.68 28.052,14.669 C26.98,14.289 26.898,16.362 26.447,18.917 Z M32.482,18.824 C32.482,18.824 31.652,19.036 31.132,19.036 C29.29,19.036 28.355,17.765 28.355,15.84 C28.355,12.937 30.088,11.391 31.869,11.391 C32.674,11.391 33.607,11.769 33.607,11.769 L33.355,13.404 C33.355,13.404 32.724,12.963 31.939,12.963 C30.889,12.963 29.947,13.965 29.947,15.786 C29.947,16.683 30.386,17.519 31.482,17.519 C32.003,17.519 32.758,17.14 32.758,17.14 L32.482,18.824 Z M36.197,18.897 L36.249,18.306 C36.224,18.309 35.754,19.015 34.666,19.015 C34.096,19.015 33.176,18.704 33.176,17.352 C33.176,15.633 34.578,15.063 35.912,15.063 C36.122,15.063 36.576,15.101 36.576,15.101 C36.576,15.101 36.628,14.997 36.628,14.713 C36.628,14.246 36.208,14.182 35.632,14.182 C34.619,14.182 33.951,14.453 33.951,14.453 L34.175,13.123 C34.175,13.123 34.987,12.783 36.045,12.783 C36.591,12.783 38.165,12.841 38.164,14.644 L37.558,18.894 C37.557,18.897 36.197,18.897 36.197,18.897 Z M39.404,18.917 L37.82,18.917 L38.783,12.935 L40.221,12.935 L40.083,13.802 C40.083,13.802 40.596,12.859 41.287,12.859 C41.488,12.859 41.584,12.879 41.584,12.879 C41.38,13.297 41.197,13.68 41.01,14.669 C39.937,14.289 39.855,16.362 39.404,18.917 Z M44.133,18.901 L44.2,18.35 C44.2,18.35 43.688,18.996 42.762,18.996 C41.479,18.996 40.85,17.757 40.85,16.491 C40.85,14.533 42.028,12.826 43.442,12.826 C44.352,12.828 44.933,13.631 44.933,13.631 L45.267,11.566 L46.814,11.563 L45.634,18.901 L44.133,18.901 L44.133,18.901 Z M47.185,18.694 C47.144,18.768 47.086,18.825 47.012,18.869 C46.939,18.91 46.861,18.931 46.779,18.931 C46.699,18.931 46.622,18.91 46.548,18.869 C46.474,18.825 46.416,18.768 46.375,18.694 C46.333,18.619 46.313,18.543 46.313,18.462 C46.313,18.38 46.334,18.302 46.375,18.228 C46.416,18.154 46.477,18.094 46.55,18.054 C46.626,18.013 46.701,17.992 46.779,17.992 C46.859,17.992 46.935,18.013 47.009,18.054 C47.085,18.095 47.143,18.152 47.185,18.228 C47.228,18.303 47.247,18.381 47.247,18.462 C47.247,18.543 47.227,18.62 47.185,18.694 Z" id="Shape"></path>
            <path d="M47.061,23.117 C47.051,23.11 47.042,23.099 47.026,23.093 C47.01,23.087 46.985,23.084 46.946,23.084 L46.852,23.084 L46.852,23.234 L46.952,23.234 C46.999,23.234 47.03,23.23 47.048,23.213 C47.065,23.199 47.073,23.182 47.073,23.158 C47.073,23.142 47.069,23.131 47.061,23.117 Z" id="Path"></path>
            <path d="M47.384,23.027 C47.341,22.949 47.282,22.894 47.207,22.853 C47.132,22.812 47.056,22.791 46.978,22.791 C46.898,22.791 46.822,22.812 46.748,22.853 C46.674,22.894 46.613,22.951 46.572,23.027 C46.529,23.101 46.51,23.179 46.51,23.259 C46.51,23.339 46.531,23.418 46.572,23.491 C46.615,23.565 46.673,23.625 46.746,23.666 C46.82,23.707 46.898,23.728 46.98,23.728 C47.06,23.728 47.138,23.707 47.211,23.666 C47.284,23.625 47.343,23.565 47.384,23.491 C47.426,23.418 47.446,23.34 47.446,23.259 C47.446,23.178 47.425,23.1 47.384,23.027 Z M47.096,23.519 L47.096,23.519 L47.052,23.44 C47.017,23.378 46.988,23.337 46.966,23.321 C46.952,23.311 46.93,23.303 46.902,23.303 L46.855,23.303 L46.855,23.518 L46.773,23.518 L46.773,23.013 L46.947,23.013 C47.007,23.013 47.05,23.018 47.074,23.028 C47.101,23.038 47.124,23.052 47.138,23.077 C47.154,23.1 47.161,23.125 47.161,23.151 C47.161,23.188 47.147,23.219 47.122,23.248 C47.096,23.274 47.06,23.291 47.017,23.294 C47.035,23.3 47.049,23.31 47.06,23.321 C47.081,23.341 47.105,23.374 47.135,23.42 L47.197,23.519 L47.096,23.519 L47.096,23.519 Z" id="Shape"></path>
            <path d="M11.022,16.211 C9.891,16.211 9.662,16.719 9.662,17.142 C9.662,17.36 9.787,17.724 10.266,17.724 C11.195,17.724 11.388,16.506 11.358,16.247 C11.314,16.238 11.286,16.212 11.022,16.211 Z" id="Path"></path>
            <path d="M22.711,14.144 C21.87,14.144 21.708,15.101 21.708,15.202 L23.421,15.202 C23.421,15.125 23.582,14.144 22.711,14.144 Z" id="Path"></path>
            <path d="M43.709,14.311 C43.03,14.311 42.493,15.099 42.494,16.296 C42.494,17.026 42.754,17.494 43.31,17.494 C44.146,17.494 44.549,16.403 44.549,15.59 C44.549,14.693 44.264,14.311 43.709,14.311 Z" id="Path"></path>
            <path d="M47.115,18.268 C47.08,18.206 47.031,18.158 46.969,18.123 C46.907,18.088 46.844,18.071 46.778,18.071 C46.714,18.071 46.649,18.089 46.587,18.123 C46.525,18.155 46.476,18.205 46.441,18.268 C46.406,18.331 46.388,18.398 46.388,18.463 C46.388,18.53 46.406,18.596 46.439,18.657 C46.476,18.719 46.523,18.766 46.585,18.803 C46.647,18.837 46.711,18.857 46.778,18.857 C46.845,18.857 46.911,18.837 46.971,18.803 C47.033,18.768 47.081,18.72 47.117,18.657 C47.152,18.595 47.168,18.53 47.168,18.463 C47.168,18.397 47.15,18.331 47.115,18.268 Z M46.898,18.72 L46.853,18.642 C46.818,18.579 46.79,18.539 46.769,18.524 C46.752,18.511 46.732,18.505 46.703,18.505 L46.657,18.505 L46.657,18.719 L46.573,18.719 L46.573,18.215 L46.748,18.215 C46.807,18.215 46.851,18.22 46.876,18.231 C46.901,18.24 46.923,18.257 46.94,18.279 C46.957,18.301 46.963,18.326 46.963,18.353 C46.963,18.39 46.949,18.421 46.923,18.449 C46.897,18.478 46.861,18.49 46.819,18.495 C46.839,18.503 46.852,18.512 46.862,18.521 C46.883,18.542 46.907,18.572 46.936,18.62 L46.998,18.72 C46.998,18.72 46.898,18.72 46.898,18.72 Z" id="Shape"></path>
            <path d="M36.039,16.211 C34.908,16.211 34.679,16.719 34.679,17.142 C34.679,17.36 34.803,17.724 35.283,17.724 C36.212,17.724 36.404,16.506 36.375,16.247 C36.33,16.238 36.302,16.212 36.039,16.211 Z" id="Path"></path>
            <path d="M46.864,18.318 C46.856,18.308 46.845,18.3 46.83,18.293 C46.813,18.288 46.788,18.283 46.748,18.283 L46.748,18.284 L46.657,18.284 L46.657,18.436 L46.756,18.436 C46.803,18.436 46.834,18.43 46.853,18.415 C46.868,18.4 46.877,18.381 46.877,18.359 C46.877,18.342 46.873,18.332 46.864,18.318 Z" id="Path"></path>
        </g>
    </g>
</svg>