<?xml version="1.0" encoding="UTF-8"?>
<svg width="51px" height="15px" viewBox="0 0 51 15" version="1.1" xmlns="http://www.w3.org/2000/svg" xmlns:xlink="http://www.w3.org/1999/xlink">
    <!-- Generator: Sketch 54.1 (76490) - https://sketchapp.com -->
    <title>Untitled 7</title>
    <desc>Created with Sketch.</desc>
    <g id="Page-1" stroke="none" stroke-width="1" fill="none" fill-rule="evenodd">
        <g id="paypal-logo" fill="#FFFFFF" fill-rule="nonzero">
            <path d="M9.035,2.604 C8.87,2.273 8.609,2 8.285,1.795 C7.947,1.588 7.548,1.443 7.092,1.357 C6.628,1.273 6.092,1.235 5.471,1.229 L2.604,1.231 C2.306,1.235 2.014,1.467 1.944,1.755 L0.015,10.157 C-0.055,10.441 0.132,10.679 0.43,10.679 L1.803,10.679 C2.101,10.679 2.396,10.448 2.462,10.157 L2.933,8.117 C2.996,7.833 3.29,7.596 3.591,7.596 L3.984,7.596 C5.663,7.594 6.963,7.251 7.897,6.564 C8.836,5.876 9.299,4.967 9.299,3.841 C9.298,3.348 9.217,2.934 9.035,2.604 Z M6.074,5.349 C5.659,5.653 5.082,5.805 4.338,5.805 L4.002,5.805 C3.703,5.805 3.52,5.569 3.585,5.281 L3.998,3.497 C4.056,3.211 4.357,2.974 4.652,2.976 L5.102,2.973 C5.627,2.973 6.028,3.064 6.296,3.24 C6.561,3.414 6.694,3.691 6.692,4.058 C6.7,4.616 6.487,5.045 6.074,5.349 Z" id="Shape"></path>
            <polygon id="Path" points="48.175 1.887 48.089 1.913 47.974 1.929 47.833 1.907 47.761 1.837 47.728 1.727 47.726 1.562 47.726 0.951 48.185 0.951 48.185 0.762 47.726 0.762 47.726 0.381 47.499 0.381 47.499 0.762 47.345 0.762 47.345 0.951 47.499 0.951 47.499 1.662 47.605 2.014 47.917 2.126 48.048 2.115 48.187 2.088 48.187 1.887"></polygon>
            <polygon id="Path" points="50.304 0.859 49.976 0.724 49.734 0.773 49.488 0.939 49.345 0.78 49.113 0.725 48.89 0.774 48.679 0.91 48.679 0.762 48.456 0.762 48.456 2.097 48.678 2.097 48.678 1.1 48.865 0.984 49.051 0.938 49.203 0.965 49.278 1.042 49.311 1.17 49.322 1.335 49.322 2.098 49.545 2.098 49.545 1.244 49.541 1.173 49.537 1.108 49.727 0.987 49.915 0.94 50.062 0.967 50.142 1.044 50.17 1.173 50.185 1.336 50.185 2.099 50.409 2.099 50.409 1.232"></polygon>
            <path d="M15.656,3.805 C15.138,3.513 14.32,3.367 13.202,3.367 C12.649,3.367 12.098,3.41 11.541,3.496 C11.13,3.559 11.09,3.571 10.837,3.626 C10.315,3.74 10.233,4.261 10.233,4.261 L10.065,4.952 C9.97,5.393 10.224,5.376 10.33,5.339 C10.558,5.271 10.685,5.201 11.151,5.097 C11.596,4.996 12.065,4.92 12.437,4.925 C12.986,4.925 13.406,4.983 13.686,5.101 C13.962,5.221 14.1,5.427 14.1,5.725 L14.076,5.919 L13.878,6.041 C13.099,6.09 12.536,6.162 11.853,6.261 C11.185,6.354 10.599,6.517 10.112,6.74 C9.589,6.97 9.201,7.279 8.93,7.672 C8.668,8.067 8.537,8.546 8.537,9.108 C8.537,9.637 8.727,10.074 9.096,10.412 C9.467,10.744 9.957,10.906 10.543,10.906 C10.914,10.904 11.201,10.875 11.405,10.826 L12.07,10.597 L12.633,10.285 L13.151,9.943 L13.158,9.953 L13.106,10.173 L13.103,10.182 L13.103,10.184 C13.047,10.452 13.209,10.672 13.47,10.698 L13.475,10.704 L13.499,10.704 L14.552,10.704 L14.75,10.704 L14.768,10.696 C15.042,10.664 15.299,10.444 15.359,10.182 L16.36,5.849 L16.412,5.496 L16.436,5.165 C16.44,4.551 16.175,4.096 15.656,3.805 Z M13.442,8.677 L13.228,8.959 L12.688,9.238 C12.434,9.341 12.193,9.393 11.97,9.393 C11.632,9.393 11.367,9.344 11.188,9.244 L10.923,8.729 C10.923,8.45 10.987,8.229 11.124,8.059 L11.706,7.663 C11.955,7.579 12.259,7.508 12.611,7.459 C12.925,7.42 13.545,7.349 13.626,7.347 L13.721,7.514 C13.702,7.609 13.526,8.345 13.442,8.677 Z" id="Shape"></path>
            <path d="M40.594,3.811 C40.073,3.519 39.256,3.372 38.141,3.372 C37.588,3.372 37.036,3.415 36.481,3.504 C36.069,3.564 36.028,3.577 35.774,3.631 C35.253,3.744 35.172,4.267 35.172,4.267 L35.004,4.957 C34.91,5.398 35.158,5.378 35.274,5.344 C35.503,5.276 35.626,5.209 36.088,5.101 C36.531,5.001 37.004,4.927 37.377,4.929 C37.924,4.929 38.344,4.988 38.623,5.106 C38.901,5.226 39.037,5.434 39.037,5.729 L39.016,5.922 L38.82,6.047 C38.033,6.094 37.469,6.166 36.793,6.265 C36.127,6.358 35.539,6.52 35.051,6.744 C34.53,6.975 34.137,7.284 33.869,7.678 C33.604,8.073 33.475,8.551 33.475,9.108 C33.475,9.641 33.663,10.078 34.037,10.414 C34.41,10.745 34.895,10.911 35.481,10.911 C35.85,10.907 36.137,10.883 36.342,10.83 L37.005,10.604 L37.573,10.292 L38.087,9.946 L38.096,9.957 L38.049,10.179 L38.044,10.183 L38.046,10.187 C37.984,10.455 38.147,10.677 38.411,10.701 L38.413,10.706 L38.437,10.706 C38.61,10.706 39.208,10.706 39.493,10.706 L39.687,10.706 L39.708,10.699 C39.979,10.666 40.235,10.446 40.292,10.181 L41.296,5.854 L41.349,5.499 L41.378,5.167 C41.379,4.555 41.117,4.102 40.594,3.811 Z M38.385,8.683 L38.162,8.968 L37.627,9.245 C37.373,9.347 37.131,9.4 36.912,9.4 C36.563,9.4 36.305,9.35 36.131,9.25 L35.863,8.737 C35.863,8.457 35.928,8.238 36.059,8.065 C36.192,7.902 36.395,7.768 36.647,7.67 C36.893,7.586 37.197,7.518 37.551,7.467 C37.863,7.428 38.481,7.355 38.561,7.354 L38.658,7.521 C38.644,7.616 38.467,8.349 38.385,8.683 Z" id="Shape"></path>
            <path d="M33.969,2.635 C33.797,2.302 33.539,2.033 33.213,1.823 C32.879,1.615 32.483,1.469 32.02,1.385 C31.565,1.304 31.022,1.26 30.405,1.259 L27.534,1.261 C27.235,1.266 26.948,1.498 26.879,1.783 L24.948,10.189 C24.878,10.474 25.07,10.71 25.362,10.71 L26.737,10.708 C27.029,10.71 27.328,10.476 27.397,10.188 L27.862,8.147 C27.93,7.863 28.225,7.624 28.522,7.626 L28.915,7.626 C30.596,7.626 31.899,7.28 32.837,6.595 C33.764,5.902 34.233,4.995 34.233,3.868 C34.228,3.377 34.143,2.962 33.969,2.635 Z M31.008,5.384 C30.594,5.682 30.016,5.834 29.276,5.834 L28.934,5.834 C28.639,5.837 28.448,5.597 28.514,5.311 L28.93,3.53 C28.991,3.245 29.289,3.006 29.586,3.009 L30.031,3.006 C30.559,3.009 30.955,3.096 31.225,3.272 C31.494,3.448 31.621,3.724 31.624,4.09 C31.627,4.648 31.42,5.078 31.008,5.384 Z" id="Shape"></path>
            <path d="M45.742,1.85 C45.805,1.563 45.625,1.33 45.33,1.334 L44.1,1.334 C43.848,1.334 43.621,1.521 43.51,1.751 L43.442,1.857 L43.38,2.129 L41.661,9.943 L41.605,10.183 L41.607,10.189 C41.55,10.446 41.708,10.64 41.952,10.677 L41.973,10.706 L43.25,10.706 C43.5,10.706 43.735,10.516 43.842,10.282 L43.908,10.182 L45.746,1.851 L45.742,1.85 Z" id="Path"></path>
            <path d="M24.986,3.472 C24.661,3.476 23.34,3.472 23.34,3.472 C23.044,3.472 22.664,3.711 22.476,3.996 C22.476,3.996 20.51,7.37 20.319,7.709 L20.091,7.706 L19.479,4.019 C19.411,3.729 19.108,3.481 18.731,3.481 L17.501,3.483 C17.205,3.483 17.023,3.719 17.09,4.007 C17.09,4.007 18.024,9.322 18.211,10.573 C18.298,11.263 18.2,11.386 18.2,11.386 L16.984,13.504 C16.804,13.792 16.901,14.027 17.196,14.027 L18.618,14.025 C18.914,14.025 19.303,13.792 19.479,13.503 L24.949,4.251 C24.949,4.252 25.475,3.461 24.986,3.472 Z" id="Path"></path>
        </g>
    </g>
</svg>