<?xml version="1.0" encoding="UTF-8"?>
<svg width="40px" height="40px" viewBox="0 0 40 40" version="1.1" xmlns="http://www.w3.org/2000/svg" xmlns:xlink="http://www.w3.org/1999/xlink">
    <!-- Generator: Sketch 54.1 (76490) - https://sketchapp.com -->
    <title>Artboard</title>
    <desc>Created with Sketch.</desc>
    <g id="Artboard" stroke="none" stroke-width="1" fill="none" fill-rule="evenodd">
        <g id="support-light" transform="translate(2.000000, 5.000000)" fill="#FFFFFF" fill-rule="nonzero">
            <path d="M21.5708865,29.3966844 C21.3043085,29.3966844 21.0402837,29.3111879 20.8264894,29.1352305 L13.0334575,22.7300177 L2.80730497,22.7300177 C1.26799645,22.7300177 0,21.436383 0,19.8594681 L0,2.83985815 C0,1.26998227 1.26799645,0.0172517731 2.80730497,0.0172517731 L27.1838298,0.0172517731 C28.7395567,0.0172517731 30,1.27 30,2.83985815 L30,19.8595213 C30,21.4364361 28.7395567,22.7300177 27.1838298,22.7300177 L22.7304964,22.7300177 L22.7304964,28.2252305 C22.7304964,28.6784397 22.4749114,29.0909397 22.0651064,29.2845213 C21.9056561,29.3597872 21.7406561,29.3966844 21.5708865,29.3966844 Z M2.80730497,2.3576773 C2.55991134,2.3576773 2.35815603,2.56193262 2.35815603,2.83985815 L2.35815603,19.8594681 C2.35815603,20.1396986 2.56409575,20.3895744 2.80730497,20.3895744 L13.4533688,20.3895744 C13.7248404,20.3895744 13.9833334,20.4773405 14.1929964,20.6497518 L20.3900709,25.7446454 L20.3900709,21.5478547 C20.3900709,20.9008688 20.923688,20.3895922 21.5706738,20.3895922 L27.1838298,20.3895922 C27.4342376,20.3895922 27.6595745,20.1300354 27.6595745,19.8595213 L27.6595745,2.83985815 C27.6595745,2.57131206 27.4387056,2.3576773 27.1838298,2.3576773 L2.80730497,2.3576773 Z" id="Shape"></path>
        </g>
    </g>
</svg>