<?xml version="1.0" encoding="UTF-8"?>
<svg width="55px" height="40px" viewBox="0 0 55 40" version="1.1" xmlns="http://www.w3.org/2000/svg" xmlns:xlink="http://www.w3.org/1999/xlink">
    <!-- Generator: Sketch 54.1 (76490) - https://sketchapp.com -->
    <title>Artboard</title>
    <desc>Created with Sketch.</desc>
    <g id="Artboard" stroke="none" stroke-width="1" fill="none" fill-rule="evenodd">
        <g id="truck-light" transform="translate(2.000000, 6.000000)" fill="#FFFFFF" fill-rule="nonzero">
            <path d="M45.8668168,11.1149336 C45.8006521,11.0508807 45.7222787,11.0006664 45.6368162,10.9666629 L42.4388617,6.16980944 C41.6456745,4.96743298 40.3030852,4.2466397 38.8667624,4.25177973 L32.3641238,4.25177973 L32.3641238,3.81171235 C32.3664868,2.79793619 31.965561,1.82528045 31.2503535,1.10962729 C30.5347521,0.393974034 29.5643382,-0.0053683339 28.554541,0.000562488732 L0.690984405,0.000562488732 C0.509031874,-0.00694988796 0.332199198,0.0610569565 0.201839207,0.188372008 C0.0710854063,0.315687159 -0.00177438803,0.491239659 0.000194790613,0.673909102 L0.000194790613,22.7472636 C-0.00886345988,23.1410707 0.29911691,23.4688477 0.690984405,23.483477 L2.05562882,23.483477 C2.39590379,26.0685272 4.59114979,28 7.18810939,28 C9.78546282,28 11.9807089,26.0685272 12.3209837,23.483477 L20.2036264,23.483477 C20.5442952,26.0681317 22.7391473,27.9996047 25.3365008,27.9996047 C27.9334604,27.9996047 30.1283125,26.0681317 30.4689813,23.483477 L35.5490817,23.483477 C35.8901442,26.0677363 38.0849965,27.9988139 40.6815621,27.9988139 C43.2781279,27.9988139 45.4729801,26.0677363 45.8140428,23.483477 L48.3093924,23.483477 C48.7012599,23.4688477 49.0092403,23.1410707 48.9997881,22.7472636 L48.9997881,15.9908647 C49.000182,14.8244687 48.5303348,13.707496 47.6969763,12.8941819 L45.8668168,11.1149336 Z M38.8667624,5.66885217 C39.8316624,5.66766608 40.732367,6.1539939 41.2636529,6.96256338 L43.9059035,10.9322641 L32.3641238,10.9322641 L32.3641238,5.66885 L38.8667624,5.66885217 Z M1.41170571,1.41751761 L28.554541,1.41763487 C29.1901933,1.41130865 29.8018218,1.66119419 30.2527649,2.11114637 C30.7033141,2.56109855 30.9557636,3.17355534 30.9526128,3.81171235 L30.9526421,22.0664045 L30.4622861,22.0664045 C30.098381,19.5050779 27.9133747,17.6020729 25.3361069,17.6020729 C22.7588392,17.6020729 20.5742267,19.5050779 20.2103216,22.0664045 L12.3142885,22.0664045 C11.9503834,19.5050779 9.76537709,17.6020729 7.18810939,17.6020729 C4.61084168,17.6020729 2.42622918,19.5050779 2.06232403,22.0664045 L1.41170571,22.0664045 L1.41170571,1.41751761 Z M7.18810939,26.554855 C5.10786361,26.554855 3.42106086,24.8618014 3.42106086,22.7729638 C3.42106086,20.6845218 5.10786361,18.9910728 7.18810939,18.9910728 C9.26874897,18.9910728 10.9551579,20.6845218 10.9551579,22.7729638 C10.9531888,24.8606152 9.26756743,26.552878 7.18810939,26.554855 Z M25.3361069,26.554855 C23.2558611,26.554855 21.5690584,24.8618014 21.5690584,22.7729638 C21.5690584,20.6845218 23.2558611,18.9910728 25.3361069,18.9910728 C27.4167465,18.9910728 29.1031555,20.6845218 29.1031555,22.7729638 C29.1011862,24.8606152 27.4155651,26.552878 25.3361069,26.554855 Z M40.6811683,26.554855 C38.6009227,26.554855 36.9141197,24.8618014 36.9141197,22.7729638 C36.9141197,20.6845218 38.6009227,18.9910728 40.6811683,18.9910728 C42.7618078,18.9910728 44.4486106,20.6845218 44.4486106,22.7729638 C44.4462477,24.8606152 42.761414,26.5520873 40.681956,26.554855 L40.6811683,26.554855 Z M47.5882806,22.0664045 L45.8077413,22.0664045 C45.4438362,19.5046825 43.2588298,17.6016777 40.6815621,17.6016777 C38.1042944,17.6016777 35.9192882,19.5046825 35.5557769,22.0664045 L32.3641238,22.0664045 L32.3641238,12.3493365 L45.09214,12.3493365 L46.7171104,13.922192 C47.275177,14.4646651 47.5894588,15.2111586 47.5882772,15.9908647 L47.5882806,22.0664045 Z" id="Shape"></path>
            <path d="M14.6982498,7 L25.3017502,7 C25.687502,7 26,6.77622771 26,6.5 C26,6.22377235 25.687502,6 25.3017502,6 L14.6982498,6 C14.3128877,6 14,6.22377235 14,6.5 C14,6.77622771 14.3128877,7 14.6982498,7 L14.6982498,7 Z" id="Path"></path>
            <path d="M5.7129298,11 L25.2870702,11 C25.6805342,11 26,10.7762278 26,10.5 C26,10.2237723 25.6805342,10 25.2870702,10 L5.7129298,10 C5.31906785,10 5,10.2237723 5,10.5 C5,10.7762278 5.31906785,11 5.7129298,11 Z" id="Path"></path>
            <path d="M25.2742981,13 L11.725702,13 C11.325189,13 11,13.2237724 11,13.5 C11,13.7762277 11.325189,14 11.725702,14 L25.2742981,14 C25.674811,14 26,13.7762277 26,13.5 C26,13.2237724 25.674811,13 25.2742981,13 Z" id="Path"></path>
        </g>
    </g>
</svg>